<svg width="46" height="46" viewBox="0 0 46 46" fill="none" xmlns="http://www.w3.org/2000/svg">
<g id="apple">
<path id="Vector" d="M28.6349 9.9475C29.3595 9.11237 29.912 8.14233 30.2606 7.09308C30.6093 6.04383 30.7472 4.93604 30.6666 3.83333C28.442 4.0129 26.3771 5.05915 24.9166 6.74667C24.2172 7.55545 23.6872 8.49635 23.3579 9.51365C23.0287 10.531 22.907 11.604 22.9999 12.6692C24.085 12.6782 25.1576 12.4374 26.1348 11.9655C27.1119 11.4935 27.9674 10.8031 28.6349 9.9475ZM33.4649 24.2075C33.4777 22.7388 33.8646 21.2977 34.589 20.02C35.3133 18.7423 36.3513 17.6702 37.6049 16.905C36.8137 15.765 35.7679 14.8251 34.5502 14.1597C33.3325 13.4943 31.9766 13.1218 30.5899 13.0717C27.5999 12.765 24.8399 14.8158 23.2491 14.8158C21.6582 14.8158 19.4157 13.11 16.9241 13.1483C15.2951 13.202 13.7079 13.6769 12.3172 14.5268C10.9266 15.3766 9.77989 16.5724 8.98906 17.9975C5.61573 23.8625 8.12656 32.5833 11.4999 37.3175C13.0332 39.6367 14.9499 42.2625 17.4799 42.1667C20.0099 42.0708 20.8341 40.595 23.7666 40.595C26.6991 40.595 27.5999 42.1667 30.0916 42.1092C32.5832 42.0517 34.3466 39.7325 35.9566 37.4133C37.0971 35.7296 37.988 33.8897 38.6016 31.9508C37.0826 31.303 35.7866 30.2245 34.8737 28.8483C33.9608 27.4722 33.4711 25.8589 33.4649 24.2075Z" fill="black"/>
</g>
</svg>
