<svg width="36" height="36" viewBox="0 0 36 36" fill="none" xmlns="http://www.w3.org/2000/svg">
<g id="Google Play" clip-path="url(#clip0_18_376)">
<path id="Vector" d="M34.4999 18C34.4999 19.125 33.8699 20.115 32.9549 20.625L25.1549 24.96L18.5549 18L25.1549 11.04L32.9549 15.375C33.8699 15.885 34.4999 16.875 34.4999 18Z" fill="#FFC107"/>
<path id="Vector_2" d="M18.555 18L2.355 35.085C1.815 34.545 1.5 33.81 1.5 33V3C1.5 2.19 1.815 1.455 2.355 0.915L18.555 18Z" fill="#03A9F4"/>
<path id="Vector_3" d="M18.555 18L25.155 24.96L5.95498 35.625C5.51998 35.865 5.02498 36 4.49998 36C3.65998 36 2.89498 35.655 2.35498 35.085L18.555 18Z" fill="#F44336"/>
<path id="Vector_4" d="M25.155 11.04L18.555 18L2.35498 0.915C2.89498 0.345 3.65998 0 4.49998 0C5.02498 0 5.51998 0.135 5.95498 0.375L25.155 11.04Z" fill="#4CAF50"/>
</g>
<defs>
<clipPath id="clip0_18_376">
<rect width="36" height="36" fill="white"/>
</clipPath>
</defs>
</svg>
