<svg xmlns="http://www.w3.org/2000/svg" width="10" height="11" viewBox="0 0 10 11" fill="none">
  <path d="M6.82285 1.85404C7.30591 1.85548 7.76877 2.04802 8.11034 2.38959C8.45192 2.73117 8.64445 3.19403 8.6459 3.67709V7.32279C8.64445 7.80585 8.45192 8.26871 8.11034 8.61028C7.76877 8.95186 7.30591 9.14439 6.82285 9.14583H3.17715C2.69409 9.14439 2.23123 8.95186 1.88965 8.61028C1.54808 8.26871 1.35554 7.80585 1.3541 7.32279V3.67709C1.35554 3.19403 1.54808 2.73117 1.88965 2.38959C2.23123 2.04802 2.69409 1.85548 3.17715 1.85404H6.82285ZM6.82285 1.12494H3.17715C1.77344 1.12494 0.625 2.27338 0.625 3.67709V7.32279C0.625 8.7265 1.77344 9.87494 3.17715 9.87494H6.82285C8.22656 9.87494 9.375 8.7265 9.375 7.32279V3.67709C9.375 2.27338 8.22656 1.12494 6.82285 1.12494Z" fill="white"/>
  <path d="M7.36914 3.677C7.26098 3.677 7.15525 3.64493 7.06531 3.58484C6.97538 3.52475 6.90529 3.43934 6.86389 3.33941C6.8225 3.23948 6.81167 3.12952 6.83277 3.02344C6.85388 2.91735 6.90596 2.81991 6.98244 2.74343C7.05892 2.66695 7.15637 2.61486 7.26245 2.59376C7.36853 2.57266 7.47849 2.58349 7.57842 2.62488C7.67835 2.66627 7.76376 2.73637 7.82385 2.8263C7.88394 2.91623 7.91602 3.02197 7.91602 3.13013C7.91617 3.20199 7.90213 3.27317 7.8747 3.33959C7.84727 3.40601 7.807 3.46636 7.75618 3.51717C7.70537 3.56798 7.64502 3.60826 7.5786 3.63569C7.51218 3.66312 7.441 3.67716 7.36914 3.677Z" fill="white"/>
  <path d="M5 4.0413C5.28844 4.0413 5.57041 4.12683 5.81024 4.28708C6.05008 4.44733 6.237 4.6751 6.34738 4.94159C6.45777 5.20808 6.48665 5.50131 6.43038 5.78421C6.3741 6.06711 6.2352 6.32698 6.03124 6.53094C5.82728 6.7349 5.56742 6.8738 5.28452 6.93007C5.00162 6.98634 4.70838 6.95746 4.4419 6.84708C4.17541 6.7367 3.94764 6.54977 3.78739 6.30994C3.62714 6.0701 3.5416 5.78814 3.5416 5.49969C3.54202 5.11303 3.6958 4.74232 3.96921 4.46891C4.24263 4.19549 4.61334 4.04171 5 4.0413ZM5 3.31219C4.56735 3.31219 4.14442 3.44049 3.78469 3.68085C3.42496 3.92122 3.14458 4.26286 2.97901 4.66257C2.81345 5.06229 2.77013 5.50212 2.85453 5.92645C2.93894 6.35079 3.14728 6.74056 3.4532 7.04649C3.75913 7.35242 4.14891 7.56076 4.57324 7.64516C4.99757 7.72957 5.43741 7.68625 5.83712 7.52068C6.23683 7.35511 6.57847 7.07474 6.81884 6.715C7.05921 6.35527 7.1875 5.93234 7.1875 5.49969C7.1875 4.91953 6.95703 4.36313 6.5468 3.9529C6.13656 3.54266 5.58016 3.31219 5 3.31219Z" fill="white"/>
</svg>