<svg width="277" height="52" viewBox="0 0 277 52" fill="none" xmlns="http://www.w3.org/2000/svg">
<path d="M13.0676 30.8579C9.00946 28.0007 3.99831 28.1436 2 28.5721V51.8571H274.539V11.1433C269.005 11.6672 260.563 13.4064 246.409 11.1433C232.113 8.8577 231.191 12.1434 227.963 16.7148C225.033 20.8641 217.818 17.2863 203.522 22.0005C192.029 25.7905 186.736 10.2863 184.154 6.28621C182.309 3.42906 175.392 2.71484 173.547 6.28621C171.703 11.1433 170.504 20.6291 169.397 22.0005C167.668 24.1434 164.02 24.4024 161.096 23.572C155.562 22.0005 156.485 16.4581 156.485 12.572C156.485 8.8577 149.355 8.8577 148.184 11.1433C143.573 20.1434 143.111 33.8488 135.272 34.0006C129.369 34.1148 127.432 30.572 124.204 27.1437C122.994 25.8577 118.671 24.9723 113.137 27.1437C106.22 29.858 103.914 27.4294 103.453 26.4291C102.992 25.4287 100.735 20.1583 100.225 9.71526C99.7635 0.286704 88.5769 0.715185 87.7737 4.57226C85.0068 17.858 88.2677 35.8576 75.3226 35.8576C67.9443 35.8576 67.9443 31.1326 67.9443 27.2862C67.9443 24.1433 61.9493 23.8576 60.1047 26.4291C58.2601 29.0005 56.8767 32.0008 50.8818 32.0008C43.9034 32.0008 41.6588 28.2862 41.6588 25.4291C41.6588 22.5719 40.7317 19.1527 37.0473 19.0005C30.1301 18.7148 31.0524 28.8576 28.7466 32.0008C26.9186 34.4928 18.1402 34.4293 13.0676 30.8579Z" fill="url(#paint0_linear_99_433)"/>
<path d="M2 28.5721C3.99831 28.1436 9.00946 28.0007 13.0676 30.8579C18.1402 34.4293 26.9186 34.4928 28.7466 32.0008C31.0524 28.8576 30.1301 18.7148 37.0473 19.0005C40.7317 19.1527 41.6588 22.5719 41.6588 25.4291C41.6588 28.2862 43.9034 32.0008 50.8818 32.0008C56.8767 32.0008 58.2601 29.0005 60.1047 26.4291C61.9493 23.8576 67.9443 24.1433 67.9443 27.2862C67.9443 31.1326 67.9443 35.8576 75.3226 35.8576C88.2677 35.8576 85.0068 17.858 87.7736 4.57226C88.5769 0.715186 99.7635 0.286704 100.225 9.71526C100.735 20.1583 102.992 25.4287 103.453 26.4291C103.914 27.4294 106.22 29.858 113.137 27.1437C118.671 24.9723 122.994 25.8577 124.204 27.1437C127.432 30.572 129.369 34.1148 135.272 34.0006C143.111 33.8488 143.573 20.1434 148.184 11.1433C149.355 8.8577 156.485 8.8577 156.485 12.572C156.485 16.4581 155.563 22.0005 161.096 23.572C164.02 24.4024 167.668 24.1434 169.397 22.0005C170.504 20.6291 171.703 11.1433 173.547 6.28621C175.392 2.71484 182.309 3.42906 184.154 6.28621C186.736 10.2863 192.029 25.7905 203.522 22.0005C217.818 17.2863 225.033 20.8641 227.963 16.7148C231.191 12.1434 232.113 8.8577 246.409 11.1433C260.563 13.4064 269.005 11.6672 274.539 11.1433" stroke="url(#paint1_linear_99_433)" stroke-width="3" stroke-linecap="round" stroke-linejoin="round"/>
<defs>
<linearGradient id="paint0_linear_99_433" x1="138.269" y1="2" x2="138.269" y2="51.8571" gradientUnits="userSpaceOnUse">
<stop stop-color="#FC155C" stop-opacity="0.14"/>
<stop offset="1" stop-color="#FC155C" stop-opacity="0"/>
</linearGradient>
<linearGradient id="paint1_linear_99_433" x1="266.699" y1="11.2857" x2="176.675" y2="149.671" gradientUnits="userSpaceOnUse">
<stop stop-color="#FC155C"/>
<stop offset="1" stop-color="#FC155C" stop-opacity="0"/>
</linearGradient>
</defs>
</svg>
