<svg width="277" height="52" viewBox="0 0 277 52" fill="none" xmlns="http://www.w3.org/2000/svg">
<path d="M263.932 30.8579C267.991 28.0007 273.002 28.1436 275 28.5721V51.8571H2.46115V11.1433C7.99493 11.6672 16.4371 13.4064 30.5912 11.1433C44.8868 8.8577 45.8091 12.1434 49.0372 16.7148C51.9672 20.8641 59.1824 17.2863 73.478 22.0005C84.9711 25.7905 90.2638 10.2863 92.8463 6.28621C94.6909 3.42906 101.608 2.71484 103.453 6.28621C105.297 11.1433 106.496 20.6291 107.603 22.0005C109.332 24.1434 112.98 24.4024 115.904 23.572C121.438 22.0005 120.515 16.4581 120.515 12.572C120.515 8.8577 127.645 8.8577 128.816 11.1433C133.427 20.1434 133.889 33.8488 141.728 34.0006C147.631 34.1148 149.568 30.572 152.796 27.1437C154.006 25.8577 158.329 24.9723 163.863 27.1437C170.78 29.858 173.086 27.4294 173.547 26.4291C174.008 25.4287 176.265 20.1583 176.775 9.71526C177.236 0.286704 188.423 0.715185 189.226 4.57226C191.993 17.858 188.732 35.8576 201.677 35.8576C209.056 35.8576 209.056 31.1326 209.056 27.2862C209.056 24.1433 215.051 23.8576 216.895 26.4291C218.74 29.0005 220.123 32.0008 226.118 32.0008C233.097 32.0008 235.341 28.2862 235.341 25.4291C235.341 22.5719 236.268 19.1527 239.953 19.0005C246.87 18.7148 245.948 28.8576 248.253 32.0008C250.081 34.4928 258.86 34.4293 263.932 30.8579Z" fill="url(#paint0_linear_99_428)"/>
<path d="M275 28.5721C273.002 28.1436 267.991 28.0007 263.932 30.8579C258.86 34.4293 250.081 34.4928 248.253 32.0008C245.948 28.8576 246.87 18.7148 239.953 19.0005C236.268 19.1527 235.341 22.5719 235.341 25.4291C235.341 28.2862 233.097 32.0008 226.118 32.0008C220.123 32.0008 218.74 29.0005 216.895 26.4291C215.051 23.8576 209.056 24.1433 209.056 27.2862C209.056 31.1326 209.056 35.8576 201.677 35.8576C188.732 35.8576 191.993 17.858 189.226 4.57226C188.423 0.715186 177.236 0.286704 176.775 9.71526C176.265 20.1583 174.008 25.4287 173.547 26.4291C173.086 27.4294 170.78 29.858 163.863 27.1437C158.329 24.9723 154.006 25.8577 152.796 27.1437C149.568 30.572 147.631 34.1148 141.728 34.0006C133.889 33.8488 133.427 20.1434 128.816 11.1433C127.645 8.8577 120.515 8.8577 120.515 12.572C120.515 16.4581 121.437 22.0005 115.904 23.572C112.98 24.4024 109.332 24.1434 107.603 22.0005C106.496 20.6291 105.297 11.1433 103.453 6.28621C101.608 2.71484 94.6909 3.42906 92.8463 6.28621C90.2638 10.2863 84.9711 25.7905 73.478 22.0005C59.1824 17.2863 51.9672 20.8641 49.0372 16.7148C45.8091 12.1434 44.8868 8.8577 30.5912 11.1433C16.4371 13.4064 7.99493 11.6672 2.46115 11.1433" stroke="url(#paint1_linear_99_428)" stroke-width="3" stroke-linecap="round" stroke-linejoin="round"/>
<defs>
<linearGradient id="paint0_linear_99_428" x1="138.731" y1="2" x2="138.731" y2="51.8571" gradientUnits="userSpaceOnUse">
<stop stop-color="#7575FF" stop-opacity="0.14"/>
<stop offset="1" stop-color="#582CFF" stop-opacity="0"/>
<stop offset="1" stop-color="#7575FF" stop-opacity="0"/>
</linearGradient>
<linearGradient id="paint1_linear_99_428" x1="10.3007" y1="11.2857" x2="100.325" y2="149.671" gradientUnits="userSpaceOnUse">
<stop stop-color="#9057E5" stop-opacity="0"/>
<stop offset="1" stop-color="#9057E5"/>
</linearGradient>
</defs>
</svg>
