<svg xmlns="http://www.w3.org/2000/svg" width="46" height="46" viewBox="0 0 46 46" fill="none">
  <g clip-path="url(#clip0_99_436)">
    <path opacity="0.3" d="M32.5833 15.3333H13.4167C9.18083 15.3333 5.75 18.7642 5.75 23C5.75 27.2358 9.18083 30.6667 13.4167 30.6667H32.5833C36.8192 30.6667 40.25 27.2358 40.25 23C40.25 18.7642 36.8192 15.3333 32.5833 15.3333ZM32.5833 28.75C29.4017 28.75 26.8333 26.1817 26.8333 23C26.8333 19.8183 29.4017 17.25 32.5833 17.25C35.765 17.25 38.3333 19.8183 38.3333 23C38.3333 26.1817 35.765 28.75 32.5833 28.75Z" fill="url(#paint0_linear_99_436)"/>
    <path d="M32.5827 11.5H13.416C7.07185 11.5 1.91602 16.6558 1.91602 23C1.91602 29.3442 7.07185 34.5 13.416 34.5H32.5827C38.9268 34.5 44.0827 29.3442 44.0827 23C44.0827 16.6558 38.9268 11.5 32.5827 11.5ZM32.5827 30.6667H13.416C9.18018 30.6667 5.74935 27.2358 5.74935 23C5.74935 18.7642 9.18018 15.3333 13.416 15.3333H32.5827C36.8185 15.3333 40.2493 18.7642 40.2493 23C40.2493 27.2358 36.8185 30.6667 32.5827 30.6667ZM32.5827 17.25C29.401 17.25 26.8327 19.8183 26.8327 23C26.8327 26.1817 29.401 28.75 32.5827 28.75C35.7643 28.75 38.3327 26.1817 38.3327 23C38.3327 19.8183 35.7643 17.25 32.5827 17.25Z" fill="url(#paint1_linear_99_436)"/>
  </g>
  <defs>
    <linearGradient id="paint0_linear_99_436" x1="23" y1="15.3333" x2="23" y2="30.6667" gradientUnits="userSpaceOnUse">
      <stop stop-color="#9057E5"/>
      <stop offset="1" stop-color="#CC475D"/>
      <stop offset="1" stop-color="#CC475D"/>
    </linearGradient>
    <linearGradient id="paint1_linear_99_436" x1="22.9993" y1="11.5" x2="22.9993" y2="34.5" gradientUnits="userSpaceOnUse">
      <stop stop-color="#9057E5"/>
      <stop offset="1" stop-color="#CC475D"/>
      <stop offset="1" stop-color="#CC475D"/>
    </linearGradient>
    <clipPath id="clip0_99_436">
      <rect width="46" height="46" fill="white" transform="matrix(-1 0 0 1 46 0)"/>
    </clipPath>
  </defs>
</svg>