<svg xmlns="http://www.w3.org/2000/svg" width="26" height="9" viewBox="0 0 26 9" fill="none">
  <path fill-rule="evenodd" clip-rule="evenodd" d="M13.329 2.96349C13.315 4.15055 14.3112 4.81298 15.0616 5.20684C15.8326 5.61099 16.0915 5.87013 16.0886 6.23147C16.0827 6.78459 15.4735 7.02862 14.9034 7.03812C13.9087 7.05475 13.3305 6.74889 12.8707 6.51753L12.5124 8.32341C12.9737 8.55247 13.8278 8.75217 14.7136 8.76087C16.7927 8.76087 18.1529 7.65543 18.1603 5.94145C18.1684 3.76625 15.3669 3.64579 15.386 2.67348C15.3926 2.37871 15.6538 2.06408 16.2262 1.98406C16.5094 1.94368 17.2914 1.91274 18.178 2.35252L18.5259 0.605286C18.0492 0.418253 17.4364 0.239136 16.6735 0.239136C14.7165 0.239136 13.3401 1.35962 13.329 2.96349ZM21.8697 0.389687C21.4901 0.389687 21.17 0.628245 21.0273 0.99433L18.0573 8.63249H20.1349L20.5483 7.40183H23.0872L23.3271 8.63249H25.1582L23.5603 0.389687H21.8697ZM22.1603 2.61641L22.7598 5.7116H21.1178L22.1603 2.61641ZM10.81 0.389687L9.17238 8.63249H11.1521L12.789 0.389687H10.81ZM7.88123 0.389687L5.82054 6.00003L4.98699 1.22966C4.88917 0.697187 4.50293 0.389687 4.07399 0.389687H0.705304L0.658203 0.629037C1.34978 0.790671 2.13549 1.0514 2.61147 1.33033C2.90277 1.50067 2.98595 1.64964 3.08156 2.05458L4.66034 8.63249H6.7527L9.9603 0.389687H7.88123Z" fill="white"/>
</svg>